<?xml version="1.0" encoding="UTF-8"?>
<svg width="17px" height="17px" viewBox="0 0 17 17" version="1.1" xmlns="http://www.w3.org/2000/svg" xmlns:xlink="http://www.w3.org/1999/xlink">
    <!-- Generator: sketchtool 57.1 (101010) - https://sketch.com -->
    <title>58A93F2B-08D5-45EF-9672-043AB8AF4199</title>
    <desc>Created with sketchtool.</desc>
    <g id="Asset-Artboard-Page" stroke="none" stroke-width="1" fill="none" fill-rule="evenodd">
        <g id="Budicon-Solid/Arrow/arrow-right" fill="#1A3C44" fill-rule="nonzero" stroke="#1A3C44">
            <path d="M15.64,8.49582205 C15.64,8.58601213 15.6042482,8.67252251 15.5403798,8.73620205 L10.7803799,13.496202 C10.646971,13.6250526 10.434911,13.6232098 10.3037615,13.4920603 C10.1726121,13.3609108 10.1707693,13.1488508 10.2996199,13.015442 L14.4792398,8.83582205 L1.02,8.83582205 C0.832223183,8.83582205 0.68,8.68359886 0.68,8.49582205 C0.68,8.30804523 0.832223183,8.15582205 1.02,8.15582205 L14.4792398,8.15582205 L10.2996199,3.97620208 C10.1707693,3.84279326 10.1726121,3.63073326 10.3037615,3.49958377 C10.434911,3.36843428 10.646971,3.36659154 10.7803799,3.49544209 L15.5403798,8.25544205 C15.6042482,8.31912158 15.64,8.40563197 15.64,8.49582205 Z" id="Shape"></path>
        </g>
    </g>
</svg>