<?xml version="1.0" encoding="UTF-8"?>
<svg width="205px" height="52px" viewBox="0 0 205 52" version="1.1" xmlns="http://www.w3.org/2000/svg" xmlns:xlink="http://www.w3.org/1999/xlink">
    <!-- Generator: sketchtool 63.1 (101010) - https://sketch.com -->
    <title>1A7DECA8-1798-4691-9FC9-A77CF988A703</title>
    <desc>Created with sketchtool.</desc>
    <g id="Desktop" stroke="none" stroke-width="1" fill="none" fill-rule="evenodd">
        <g id="Web_desktop" transform="translate(-220.000000, -30.000000)">
            <g id="Header-sekcija" transform="translate(-42.000000, 30.000000)">
                <g id="Navigacija" transform="translate(262.000000, 0.000000)">
                    <g id="DUMP-Days-logo">
                        <g id="LOGO">
                            <path d="M43.8695176,24.3998853 C43.4151614,21.341361 41.543693,19.2136919 40.1758886,17.8790238 C37.8921288,15.6506046 35.6100405,13.421102 33.3279521,11.192412 C30.6539084,8.57967987 27.9801433,5.96694774 25.3033139,3.35692394 C21.980747,0.116670265 17.8907054,-0.800372442 13.4747307,0.703837599 C8.97601925,2.2359435 6.13065179,5.84642677 6.05042212,10.124515 L6.05042212,10.1250566 C6.02395747,11.5100999 6,13.242081 6,15.0501664 C6,15.7955006 6.37858375,16.1678968 6.37858375,16.1678968 L9.14149294,18.8540249 C9.46157589,19.1300044 10.141578,19.0195042 10.1362851,18.6457538 C10.139628,15.6980005 10.1541139,12.4420384 10.1964574,10.1984525 C10.2449295,7.61063711 11.9826818,5.48350969 14.8458781,4.50769608 C17.7695252,3.51184079 20.1591435,4.0513414 22.3665737,6.20338551 C25.0420103,8.81340931 27.7157754,11.4245164 30.3889834,14.0358944 C32.6719074,16.2662094 34.9539958,18.495712 37.2383127,20.7246728 C38.7710337,22.2202162 39.5502086,23.531051 39.7652687,24.9762193 C40.1003947,27.2319927 39.4997865,29.0839532 37.9302936,30.6358299 C35.6362265,32.9037908 33.2753014,35.1893559 30.9915416,37.3999001 C28.1077308,40.1924658 25.1253043,43.0792815 22.2356434,45.9720557 C20.4806194,47.729766 17.8138186,48.3900584 15.2759982,47.6978076 C13.0660609,47.0952028 11.3918237,45.5977636 10.6513707,43.6220322 C10.4090103,42.9760939 9.67217877,43.181115 9.49138344,43.3593235 L7.49873477,45.2957841 C7.49873477,45.2957841 7.32351095,45.4878051 7.29091765,45.7396804 C7.25609574,46.0091599 7.29231052,46.2171601 7.42463376,46.4541395 C8.80915268,48.9273923 11.1834494,50.7682486 14.15529,51.5791245 C15.1915899,51.8618748 16.2429329,52 17.2820185,52 C20.2560877,51.9991875 23.1240198,50.8700821 25.2108269,48.7806005 C28.0756946,45.9122014 31.0450281,43.0373023 33.9171387,40.257195 C36.2084201,38.0387967 38.577981,35.7456482 40.8870912,33.4622498 C43.3563821,31.0209553 44.3876676,27.8871393 43.8695176,24.3998853" id="Fill-1" fill="#1A3C44"></path>
                            <path d="M14.8103836,33.7751746 C15.7756254,32.8483605 16.1470479,31.6965784 15.9480614,30.399308 C15.7956097,29.3997498 15.2129246,28.6246206 14.4789297,27.92951 C12.1359131,25.710814 9.79689326,23.4888849 7.45302014,21.2709971 C6.15204208,20.0391965 4.63380612,19.694066 2.88261029,20.2735943 C1.17994776,20.8369571 0.061968815,22.1164456 0.0305649119,23.7381009 C-0.0153989825,26.1400044 0.00858217981,30.9451584 0.00372884934,30.9451584 C0.00372884934,32.9625957 -0.00769075176,34.9797635 0.00943864989,36.9974702 C0.0151484504,37.6424682 0.00858217981,38.3060563 0.159035424,38.9292311 C0.901594986,42.0133128 5.11571328,43.0241868 7.40048997,40.8036049 C9.83943128,38.432685 12.3557404,36.131815 14.8103836,33.7751746" id="Fill-3" fill="#5EC4BC"></path>
                            <path d="M68.7902307,25.25 C68.7902307,20.0652402 67.0425532,17.6004141 63.6131256,17.6004141 L60.9916092,17.6004141 L60.9916092,32.9311706 L63.6131256,32.9311706 C67.0425532,32.9311706 68.7902307,30.4347598 68.7902307,25.25 L68.7902307,25.25 Z M57.8115073,36.25 C57.2804915,36.25 57,35.9657372 57,35.4275814 L57,15.0724186 C57,14.5354776 57.2804915,14.25 57.8115073,14.25 L63.2703027,14.25 C69.6640695,14.25 73,18.011016 73,25.25 C73,32.488984 69.6640695,36.25 63.2703027,36.25 L57.8115073,36.25 Z" id="Fill-6" fill="#1A3C44"></path>
                            <path d="M92,15.0528245 L92,28.7210004 C92,33.3493963 89.2242397,36.25 84.5,36.25 C79.7768951,36.25 77,33.3493963 77,28.7210004 L77,15.0528245 C77,14.5286762 77.2666818,14.25 77.7682705,14.25 L80.0129369,14.25 C80.5145256,14.25 80.7789378,14.5286762 80.7789378,15.0528245 L80.7789378,28.6605218 C80.7789378,31.4982751 82.0794371,33.0410737 84.5,33.0410737 C86.9216977,33.0410737 88.191557,31.4982751 88.191557,28.6605218 L88.191557,15.0528245 C88.191557,14.5286762 88.4854744,14.25 88.9881979,14.25 L91.2033591,14.25 C91.703813,14.25 92,14.5286762 92,15.0528245" id="Fill-8" fill="#1A3C44"></path>
                            <path d="M98,35.4276269 L98,15.0723731 C98,14.5354619 98.2848531,14.25 98.8241261,14.25 L102.264275,14.25 C102.73903,14.25 102.972755,14.494161 103.213785,14.9460411 L108.579735,24.623806 L113.787433,14.9460411 C114.116109,14.4079151 114.230537,14.25 114.705292,14.25 L118.145441,14.25 C118.683497,14.25 119,14.5354619 119,15.0723731 L119,35.4276269 C119,35.9645381 118.683497,36.25 118.145441,36.25 L115.96035,36.25 C115.453945,36.25 115.136224,35.9645381 115.136224,35.4276269 L115.136224,27.052054 C115.229958,24.461032 115.267695,19.6191127 115.267695,19.6191127 L110.734392,27.784537 C110.467799,28.2582823 110.291287,28.4793634 109.815315,28.4793634 L107.345371,28.4793634 C106.868182,28.4793634 106.677062,28.2437055 106.426294,27.784537 L101.690916,19.2607669 C101.690916,19.2607669 101.833343,24.461032 101.833343,27.052054 L101.833343,35.4276269 C101.833343,35.9645381 101.54849,36.25 101.010434,36.25 L98.8241261,36.25 C98.2848531,36.25 98,35.9645381 98,35.4276269" id="Fill-10" fill="#1A3C44"></path>
                            <path d="M129.94972,25.534886 C132.809127,25.534886 134.178863,24.1122784 134.178863,21.3302363 C134.178863,18.7377133 132.809127,17.3151057 130.154844,17.3151057 L127.732586,17.3151057 L127.732586,25.534886 L129.94972,25.534886 Z M124,35.4287509 L124,15.072464 C124,14.5342785 124.263411,14.25 124.758847,14.25 L129.6,14.25 C134.967974,14.25 138,16.8097217 138,21.2986498 C138,25.913924 134.967974,28.5999917 129.629143,28.5999917 L127.732586,28.5999917 L127.732586,35.4287509 C127.732586,35.9669363 127.471417,36.25 126.975981,36.25 L124.758847,36.25 C124.263411,36.25 124,35.9669363 124,35.4287509 L124,35.4287509 Z" id="Fill-12" fill="#1A3C44"></path>
                            <path d="M152.789032,25.25 C152.789032,20.0652402 151.042553,17.6004141 147.611927,17.6004141 L144.991609,17.6004141 L144.991609,32.9311706 L147.611927,32.9311706 C151.042553,32.9311706 152.789032,30.4347598 152.789032,25.25 L152.789032,25.25 Z M141.810309,36.25 C141.279293,36.25 141,35.9657372 141,35.4275814 L141,15.0724186 C141,14.5354776 141.279293,14.25 141.810309,14.25 L147.269104,14.25 C153.662871,14.25 157,18.011016 157,25.25 C157,32.488984 153.662871,36.25 147.269104,36.25 L141.810309,36.25 Z" id="Fill-14" fill="#5EC4BC"></path>
                            <path d="M168.874188,28.0634732 L166.020972,17.4096908 L165.958317,17.4096908 L163.105101,28.0634732 L168.874188,28.0634732 Z M157.054065,35.3328272 L163.262943,14.9448647 C163.387048,14.4710933 163.732856,14.25 164.202769,14.25 L167.807847,14.25 C168.278965,14.25 168.623568,14.4710933 168.748878,14.9448647 L174.957756,35.3328272 C175.113189,35.9025676 174.830036,36.25 174.267345,36.25 L171.759937,36.25 C171.288819,36.25 170.944216,36.0604914 170.850233,35.5539205 L169.627254,31.1271949 L162.321912,31.1271949 L161.098933,35.5539205 C160.972418,36.0604914 160.661552,36.25 160.190434,36.25 L157.744476,36.25 C157.18058,36.25 156.867305,35.9025676 157.054065,35.3328272 L157.054065,35.3328272 Z" id="Fill-16" fill="#5EC4BC"></path>
                            <path d="M179.511826,35.4276269 L179.511826,27.9679615 L173.119055,15.2302882 C172.841367,14.6289962 173.058534,14.25 173.675619,14.25 L176.208044,14.25 C176.669672,14.25 176.979401,14.4722958 177.164527,14.851292 L181.487687,24.3954365 L185.90341,14.851292 C186.088536,14.4722958 186.397079,14.25 186.829039,14.25 L189.299755,14.25 C189.918028,14.25 190.164862,14.6289962 189.885987,15.2302882 L183.463548,27.9679615 L183.463548,35.4276269 C183.463548,35.9645381 183.155006,36.25 182.661337,36.25 L180.314038,36.25 C179.788328,36.25 179.511826,35.9645381 179.511826,35.4276269" id="Fill-18" fill="#5EC4BC"></path>
                            <path d="M190.459819,33.8117516 C190.111542,33.5055756 190.082046,33.1073076 190.344105,32.7090396 L191.215366,31.3623436 C191.505786,30.9341756 191.854063,30.8719836 192.260197,31.2391556 C193.596584,32.3107716 195.484315,33.0152156 196.995408,33.0152156 C199.375492,33.0152156 200.741374,31.8826036 200.798097,30.0766436 C200.828727,27.5961396 199.144063,27.0447836 196.472424,26.1262556 C193.770155,25.1766316 190.751374,23.9208316 190.751374,19.9716396 C190.751374,16.2664316 193.452508,13.8481196 197.662466,13.8481196 C199.63755,13.8481196 201.78734,14.5214676 203.267803,15.5619876 C203.673937,15.8382636 203.732929,16.2664316 203.441374,16.6945996 L202.599609,17.9814956 C202.338685,18.3797636 201.989273,18.4706596 201.553643,18.1955796 C200.421458,17.4612356 198.997718,17.0330676 197.808811,17.0330676 C195.77587,17.0330676 194.554063,18.0424916 194.554063,19.6654636 C194.554063,21.5635156 196.036794,22.1447716 198.505366,23.0034996 C201.322214,23.9208316 204.662046,25.0845396 204.662046,29.7082756 C204.662046,33.7495596 201.49692,36.2001636 197.139483,36.2001636 C194.729903,36.2001636 192.20234,35.3115356 190.459819,33.8117516" id="Fill-20" fill="#5EC4BC"></path>
                        </g>
                    </g>
                </g>
            </g>
        </g>
    </g>
</svg>