<?xml version="1.0" encoding="UTF-8"?>
<svg width="115px" height="36px" viewBox="0 0 115 36" version="1.1" xmlns="http://www.w3.org/2000/svg" xmlns:xlink="http://www.w3.org/1999/xlink">
    <!-- Generator: sketchtool 63.1 (101010) - https://sketch.com -->
    <title>F6396314-2C74-4C0B-B97D-75E19E9152DD</title>
    <desc>Created with sketchtool.</desc>
    <g id="Desktop" stroke="none" stroke-width="1" fill="none" fill-rule="evenodd">
        <g id="Web_desktop" transform="translate(-583.000000, -15531.000000)" fill="#7A8E94" fill-rule="nonzero">
            <g id="Footer" transform="translate(220.000000, 15531.000000)">
                <g id="Dump-logo" transform="translate(363.000000, 0.000000)">
                    <path d="M22.3983672,0 L22.3983672,28.2164755 L15.0983006,28.2164755 L15.0983006,25.1946565 C14.0764139,26.4778132 13.1439562,27.343931 12.3008997,27.7930359 C11.1768243,28.383288 9.92503189,28.6784096 8.54548484,28.6784096 C5.77361715,28.6784096 3.6564274,27.6198212 2.19385205,25.5026126 C0.731276704,23.385404 0,20.8127133 0,17.7844634 C0,14.3969296 0.807917057,11.8049919 2.42377541,10.0085725 C4.03963376,8.21215305 6.09295656,7.31395681 8.5838054,7.31395681 C9.79729586,7.31395681 10.8990009,7.51925881 11.8889537,7.92986896 C12.8789064,8.34047912 13.7570771,8.95638511 14.5234922,9.77760542 L14.5234922,0 L22.3983672,0 Z M14.580973,17.9384414 C14.580973,16.3344955 14.2424781,15.1379698 13.5654782,14.3488284 C12.8884782,13.559687 12.032661,13.1651223 10.9980007,13.1651223 C10.0910762,13.1651223 9.33105938,13.5436478 8.71792736,14.3007103 C8.10479533,15.0577728 7.79823392,16.3280789 7.79823392,18.1116667 C7.79823392,19.7797705 8.11437538,21.0019589 8.74666778,21.7782688 C9.37896018,22.5545786 10.1613304,22.9427277 11.0938021,22.9427277 C12.0901416,22.9427277 12.9204121,22.5513707 13.5846385,21.7686451 C14.2488648,20.9859195 14.580973,19.7091977 14.580973,17.9384414 Z M48.5904698,28.2164755 L41.3095635,28.2164755 L41.3095635,24.9059477 C40.2238089,26.2660938 39.1284905,27.2348626 38.0235755,27.8122831 C36.9186605,28.3897037 35.5614876,28.6784096 33.952016,28.6784096 C31.8060539,28.6784096 30.1231595,28.033633 28.9032822,26.7440605 C27.683405,25.454488 27.0734755,23.4688327 27.0734755,20.7870351 L27.0734755,7.77589093 L34.91003,7.77589093 L34.91003,19.0162877 C34.91003,20.2994444 35.1463377,21.2104721 35.6189603,21.7493979 C36.0915829,22.2883237 36.7557993,22.5577826 37.6116295,22.5577826 C38.5441011,22.5577826 39.3073113,22.1985041 39.9012829,21.4799363 C40.4952546,20.7613685 40.7922359,19.4718154 40.7922359,17.6112381 L40.7922359,7.77589093 L48.5904698,7.77589093 L48.5904698,28.2164755 Z M53.3805398,7.77589093 L60.6614462,7.77589093 L60.6614462,10.7592154 C61.7088801,9.51455338 62.7658783,8.62918852 63.8324725,8.10309426 C64.8990668,7.577 66.185986,7.31395681 67.6932689,7.31395681 C69.3155141,7.31395681 70.59924,7.60266275 71.5444852,8.18008328 C72.4897304,8.75750381 73.2625206,9.61720592 73.862879,10.7592154 C75.0891431,9.42473241 76.2068149,8.51691264 77.215928,8.03572886 C78.2250411,7.55454509 79.4704469,7.31395681 80.9521826,7.31395681 C83.1364654,7.31395681 84.8417133,7.96514909 86.0679773,9.26755317 C87.2942414,10.5699573 87.9073642,12.606938 87.9073642,15.3785566 L87.9073642,28.2164755 L80.08997,28.2164755 L80.08997,16.5718864 C80.08997,15.6480135 79.9111425,14.961535 79.5534822,14.5124301 C79.0297652,13.8066939 78.3783222,13.4538311 77.5991336,13.4538311 C76.6794356,13.4538311 75.9385788,13.7874468 75.3765412,14.4546883 C74.8145035,15.1219298 74.5334888,16.1933496 74.5334888,17.6689799 L74.5334888,28.2164755 L66.7160946,28.2164755 L66.7160946,16.9568314 C66.7160946,16.0586217 66.6650011,15.4491314 66.5628124,15.1283422 C66.3967558,14.6150796 66.1093545,14.2012677 65.7005998,13.8868943 C65.2918451,13.5725209 64.8128429,13.4153366 64.2635788,13.4153366 C63.3694279,13.4153366 62.6349579,13.755368 62.0601466,14.4354411 C61.4853353,15.1155141 61.197934,16.2318438 61.197934,17.7844634 L61.197934,28.2164755 L53.3805398,28.2164755 L53.3805398,7.77589093 Z M92.6016328,35.9923664 L92.6016328,7.77589093 L99.9016994,7.77589093 L99.9016994,10.7977099 C100.910813,9.52738476 101.836883,8.66768264 102.67994,8.21857779 C103.816789,7.61549412 105.074968,7.31395681 106.454515,7.31395681 C109.175289,7.31395681 111.279705,8.35971386 112.767827,10.4512593 C114.25595,12.5428048 115,15.1283268 115,18.207903 C115,21.6082684 114.18889,24.2034139 112.566644,25.9934176 C110.944399,27.7834212 108.89427,28.6784096 106.416195,28.6784096 C105.215478,28.6784096 104.120159,28.4731076 103.130207,28.0624974 C102.140254,27.6518873 101.255696,27.042397 100.476508,26.2340082 L100.476508,35.9923664 L92.6016328,35.9923664 Z M100.419027,18.053925 C100.419027,19.6707025 100.757522,20.870436 101.434522,21.6531616 C102.111522,22.4358872 102.967339,22.8272442 104.001999,22.8272442 C104.908924,22.8272442 105.668941,22.4519264 106.282073,21.7012797 C106.895205,20.9506331 107.201766,19.6771191 107.201766,17.8806997 C107.201766,16.2254275 106.882431,15.0096547 106.243752,14.2333449 C105.605073,13.4570351 104.825896,13.068886 103.906198,13.068886 C102.909858,13.068886 102.079588,13.4602429 101.415362,14.2429685 C100.751135,15.0256941 100.419027,16.2960002 100.419027,18.053925 Z" id="dump"></path>
                    <path d="M29.9837105,5.34901354 L29.9837105,4.77981428 C29.6956983,5.21766205 29.3043328,5.43658266 28.8096023,5.43658266 C28.5912705,5.43658266 28.3874586,5.39279854 28.1981603,5.30522898 C28.008862,5.21765943 27.868342,5.10759101 27.7765962,4.97502044 C27.6848504,4.84244986 27.620397,4.68008375 27.5832342,4.48791723 C27.5576847,4.35899538 27.5449102,4.15466949 27.5449102,3.87493341 L27.5449102,1.47408013 L28.1720302,1.47408013 L28.1720302,3.6231722 C28.1720302,3.96615295 28.1848048,4.19723581 28.2103543,4.31642771 C28.2498398,4.48913433 28.333455,4.62474348 28.4612023,4.72325923 C28.5889496,4.82177498 28.7468894,4.87103211 28.9350263,4.87103211 C29.1231633,4.87103211 29.2996842,4.82055875 29.4645944,4.71961051 C29.6295046,4.61866228 29.7462174,4.48122879 29.8147364,4.30730592 C29.8832554,4.13338306 29.9175144,3.88101625 29.9175144,3.55019794 L29.9175144,1.47408013 L30.5446345,1.47408013 L30.5446345,5.34901354 L29.9837105,5.34901354 Z M33.9275989,5.34901354 L33.9275989,4.86008597 C33.6930084,5.24441902 33.3480958,5.43658266 32.8928508,5.43658266 C32.5978706,5.43658266 32.3267019,5.35144687 32.0793367,5.18117273 C31.8319714,5.0108986 31.6403533,4.7731265 31.5044766,4.4678493 C31.3685999,4.16257211 31.3006626,3.81169103 31.3006626,3.41519555 C31.3006626,3.02843002 31.3622127,2.67754894 31.4853146,2.36254179 C31.6084166,2.04753464 31.7930668,1.80611387 32.0392707,1.63827222 C32.2854746,1.47043058 32.5607079,1.38651101 32.8649788,1.38651101 C33.0879559,1.38651101 33.2865419,1.43576815 33.4607428,1.5342839 C33.6349437,1.63279965 33.776625,1.76111144 33.8857909,1.91922314 L33.8857909,0 L34.509427,0 L34.509427,5.34901354 L33.9275989,5.34901354 Z M31.9452027,3.41519555 C31.9452027,3.91142302 32.0450763,4.28237182 32.2448267,4.52805307 C32.4445771,4.77373432 32.6803254,4.8965731 32.9520788,4.8965731 C33.2261549,4.8965731 33.4589999,4.77920734 33.6506209,4.54447228 C33.8422418,4.30973723 33.9380509,3.9515588 33.9380509,3.46992625 C33.9380509,2.93964394 33.8404999,2.55045176 33.6453949,2.30233802 C33.4502899,2.05422429 33.2098962,1.93016928 32.9242068,1.93016928 C32.6454854,1.93016928 32.4126403,2.04935938 32.2256647,2.28774317 C32.0386891,2.52612696 31.9452027,2.90194066 31.9452027,3.41519555 Z M35.4884311,5.34901354 L35.4884311,1.47408013 L36.0528391,1.47408013 L36.0528391,2.06152295 C36.1968452,1.78665185 36.3298165,1.60543424 36.4517572,1.51786469 C36.5736978,1.43029513 36.7078305,1.38651101 36.8541592,1.38651101 C37.065523,1.38651101 37.2803675,1.4570521 37.4986993,1.59813638 L37.2826913,2.20747148 C37.1293945,2.11260446 36.9761,2.06517167 36.8228032,2.06517167 C36.6857652,2.06517167 36.5626651,2.10834767 36.4534992,2.19470099 C36.3443333,2.2810543 36.2665247,2.40085251 36.2200711,2.55409923 C36.1503908,2.78761688 36.1155511,3.04302542 36.1155511,3.320329 L36.1155511,5.34901354 L35.4884311,5.34901354 Z M40.2963516,5.34901354 L40.2963516,4.77981428 C40.0083395,5.21766205 39.616974,5.43658266 39.1222435,5.43658266 C38.9039117,5.43658266 38.7000997,5.39279854 38.5108014,5.30522898 C38.3215031,5.21765943 38.1809832,5.10759101 38.0892374,4.97502044 C37.9974916,4.84244986 37.9330382,4.68008375 37.8958753,4.48791723 C37.8703259,4.35899538 37.8575513,4.15466949 37.8575513,3.87493341 L37.8575513,1.47408013 L38.4846714,1.47408013 L38.4846714,3.6231722 C38.4846714,3.96615295 38.4974459,4.19723581 38.5229954,4.31642771 C38.5624809,4.48913433 38.6460961,4.62474348 38.7738434,4.72325923 C38.9015908,4.82177498 39.0595305,4.87103211 39.2476675,4.87103211 C39.4358044,4.87103211 39.6123254,4.82055875 39.7772355,4.71961051 C39.9421457,4.61866228 40.0588586,4.48122879 40.1273776,4.30730592 C40.1958966,4.13338306 40.2301556,3.88101625 40.2301556,3.55019794 L40.2301556,1.47408013 L40.8572757,1.47408013 L40.8572757,5.34901354 L40.2963516,5.34901354 Z M41.7247918,5.6701003 L42.3344918,5.76496684 C42.3600413,5.96199834 42.4308819,6.10551296 42.5470159,6.195515 C42.7026353,6.31713938 42.9151572,6.37795066 43.1845879,6.37795066 C43.4749227,6.37795066 43.6990579,6.31713938 43.857,6.195515 C44.0149421,6.07389062 44.1217837,5.90361904 44.177528,5.68469515 C44.2100455,5.55090833 44.2251427,5.26996023 44.22282,4.84184241 C43.948744,5.17995819 43.6073153,5.34901354 43.1985239,5.34901354 C42.6898573,5.34901354 42.2961692,5.1568499 42.0174478,4.77251686 C41.7387264,4.38818381 41.5993677,3.92723432 41.5993677,3.38965456 C41.5993677,3.01991644 41.6632404,2.67876516 41.7909878,2.36619051 C41.9187351,2.05361585 42.1039659,1.81219507 42.3466858,1.64192094 C42.5894057,1.4716468 42.8745103,1.38651101 43.2020079,1.38651101 C43.6386715,1.38651101 43.9986813,1.5713773 44.282048,1.94111542 L44.282048,1.47408013 L44.8603921,1.47408013 L44.8603921,4.82359884 C44.8603921,5.42685577 44.8017454,5.85435906 44.6844501,6.10612153 C44.5671548,6.357884 44.3813433,6.55673688 44.12701,6.70268613 C43.8726767,6.84863539 43.5597005,6.92160893 43.1880719,6.92160893 C42.746763,6.92160893 42.3902372,6.81762164 42.1184838,6.60964395 C41.8467304,6.40166626 41.715501,6.08848817 41.7247918,5.6701003 Z M42.2439078,3.34222128 C42.2439078,3.8506112 42.3402975,4.22156 42.5330799,4.45507881 C42.7258622,4.68859762 42.9674171,4.80535527 43.2577519,4.80535527 C43.5457641,4.80535527 43.787319,4.68920573 43.982424,4.45690316 C44.177529,4.2246006 44.27508,3.86034104 44.27508,3.36411356 C44.27508,2.88977848 44.1746257,2.53220816 43.973714,2.29139188 C43.7728023,2.05057561 43.5306667,1.93016928 43.2472999,1.93016928 C42.9685785,1.93016928 42.7316688,2.04875127 42.5365639,2.28591881 C42.3414589,2.52308636 42.2439078,2.87518366 42.2439078,3.34222128 Z M48.2224525,4.87103211 C47.9901846,5.07779356 47.7666302,5.22374063 47.5517824,5.30887769 C47.3369346,5.39401476 47.1064123,5.43658266 46.8602083,5.43658266 C46.4537396,5.43658266 46.141344,5.33259537 45.9230122,5.12461768 C45.7046804,4.91663999 45.5955162,4.6508947 45.5955162,4.32737385 C45.5955162,4.13763981 45.6367431,3.96432767 45.7191982,3.80743222 C45.8016533,3.65053676 45.9096562,3.52465742 46.0432102,3.4297904 C46.1767643,3.33492338 46.3271554,3.26316607 46.4943883,3.21451632 C46.6174903,3.1804615 46.8033018,3.14762341 47.0518284,3.11600107 C47.5581723,3.05275639 47.9309566,2.9773504 48.1701925,2.88978085 C48.1725152,2.79977881 48.1736765,2.7426162 48.1736765,2.71829133 C48.1736765,2.45071769 48.1144491,2.26220273 47.9959925,2.15274078 C47.8357276,2.00435904 47.5976567,1.93016928 47.2817724,1.93016928 C46.9867922,1.93016928 46.7690444,1.98429132 46.6285223,2.09253702 C46.4880003,2.20078271 46.384062,2.39233824 46.3167043,2.66720934 L45.7035202,2.57964023 C45.7592645,2.30476913 45.8510089,2.08280796 45.9787562,1.91375007 C46.1065036,1.74469218 46.2911537,1.61455604 46.5327123,1.52333776 C46.7742709,1.43211947 47.0541494,1.38651101 47.3723564,1.38651101 C47.6882407,1.38651101 47.9448928,1.42543023 48.1423205,1.50326984 C48.3397482,1.58110944 48.4849134,1.6790156 48.5778205,1.79699125 C48.6707277,1.9149669 48.7357617,2.06395453 48.7729245,2.24395861 C48.7938287,2.35585304 48.8042806,2.55774649 48.8042806,2.849645 L48.8042806,3.72533617 C48.8042806,4.33589056 48.8176358,4.72204218 48.8443466,4.88380261 C48.8710574,5.04556303 48.9238975,5.20063179 49.0028686,5.34901354 L48.3478765,5.34901354 C48.2828415,5.21279423 48.2410339,5.05346868 48.2224525,4.87103211 Z M48.1701925,3.40424941 C47.94257,3.50154891 47.6011414,3.58425225 47.1458964,3.65236191 C46.888079,3.69128171 46.7057515,3.73506583 46.5989083,3.78371558 C46.4920651,3.83236533 46.4096112,3.90351453 46.3515443,3.9971653 C46.2934773,4.09081608 46.2644443,4.19480336 46.2644443,4.30913028 C46.2644443,4.48426939 46.3277363,4.63021646 46.4543223,4.74697586 C46.5809083,4.86373527 46.7661391,4.9221141 47.0100204,4.9221141 C47.2515789,4.9221141 47.4664235,4.86677583 47.6545604,4.75609765 C47.8426974,4.64541946 47.9808947,4.49399938 48.0691565,4.30183285 C48.1365141,4.15345111 48.1701925,3.93453051 48.1701925,3.64506448 L48.1701925,3.40424941 Z M51.7587129,5.34901354 L51.7587129,1.47408013 L52.3196369,1.47408013 L52.3196369,2.0177384 C52.4357709,1.82800436 52.5902267,1.67536805 52.783009,1.55982489 C52.9757913,1.44428173 53.1952811,1.38651101 53.4414851,1.38651101 C53.7155611,1.38651101 53.9402769,1.44610607 54.1156391,1.56529796 C54.2910014,1.68448985 54.4146821,1.85111276 54.4866852,2.06517167 C54.7793427,1.61272897 55.1602562,1.38651101 55.6294373,1.38651101 C55.9964205,1.38651101 56.2786217,1.49293075 56.4760494,1.70577342 C56.6734771,1.91861608 56.7721894,2.24638888 56.7721894,2.68910162 L56.7721894,5.34901354 L56.1485534,5.34901354 L56.1485534,2.90802441 C56.1485534,2.64531575 56.1282302,2.45619267 56.0875834,2.34064951 C56.0469365,2.22510635 55.9731926,2.13206509 55.8663493,2.06152295 C55.7595061,1.99098081 55.6340834,1.95571027 55.4900773,1.95571027 C55.2299373,1.95571027 55.0139314,2.04631908 54.8420532,2.2275394 C54.670175,2.40875973 54.5842372,2.69882953 54.5842372,3.0977575 L54.5842372,5.34901354 L53.9571171,5.34901354 L53.9571171,2.83140144 C53.9571171,2.53950292 53.906019,2.32058159 53.8038211,2.17463306 C53.7016233,2.02868381 53.5343929,1.95571027 53.3021251,1.95571027 C53.1256015,1.95571027 52.9624358,2.00435929 52.812623,2.1016588 C52.6628102,2.1989583 52.5542266,2.3412567 52.486869,2.52855824 C52.4195113,2.71585979 52.385833,2.98586187 52.385833,3.33857257 L52.385833,5.34901354 L51.7587129,5.34901354 Z M57.6884815,5.34901354 L57.6884815,0 L58.3156016,0 L58.3156016,5.34901354 L57.6884815,5.34901354 Z M61.70205,4.87103211 C61.4697821,5.07779356 61.2462277,5.22374063 61.0313799,5.30887769 C60.8165321,5.39401476 60.5860098,5.43658266 60.3398058,5.43658266 C59.9333371,5.43658266 59.6209415,5.33259537 59.4026097,5.12461768 C59.184278,4.91663999 59.0751137,4.6508947 59.0751137,4.32737385 C59.0751137,4.13763981 59.1163406,3.96432767 59.1987957,3.80743222 C59.2812508,3.65053676 59.3892537,3.52465742 59.5228077,3.4297904 C59.6563618,3.33492338 59.8067529,3.26316607 59.9739858,3.21451632 C60.0970878,3.1804615 60.2828993,3.14762341 60.5314259,3.11600107 C61.0377698,3.05275639 61.4105541,2.9773504 61.64979,2.88978085 C61.6521127,2.79977881 61.653274,2.7426162 61.653274,2.71829133 C61.653274,2.45071769 61.5940466,2.26220273 61.47559,2.15274078 C61.3153251,2.00435904 61.0772542,1.93016928 60.7613699,1.93016928 C60.4663897,1.93016928 60.2486419,1.98429132 60.1081198,2.09253702 C59.9675978,2.20078271 59.8636595,2.39233824 59.7963018,2.66720934 L59.1831177,2.57964023 C59.238862,2.30476913 59.3306064,2.08280796 59.4583537,1.91375007 C59.5861011,1.74469218 59.7707512,1.61455604 60.0123098,1.52333776 C60.2538684,1.43211947 60.5337469,1.38651101 60.8519539,1.38651101 C61.1678382,1.38651101 61.4244903,1.42543023 61.621918,1.50326984 C61.8193457,1.58110944 61.9645109,1.6790156 62.057418,1.79699125 C62.1503252,1.9149669 62.2153592,2.06395453 62.2525221,2.24395861 C62.2734262,2.35585304 62.2838781,2.55774649 62.2838781,2.849645 L62.2838781,3.72533617 C62.2838781,4.33589056 62.2972333,4.72204218 62.3239441,4.88380261 C62.3506549,5.04556303 62.403495,5.20063179 62.4824661,5.34901354 L61.827474,5.34901354 C61.762439,5.21279423 61.7206314,5.05346868 61.70205,4.87103211 Z M61.64979,3.40424941 C61.4221675,3.50154891 61.0807389,3.58425225 60.6254939,3.65236191 C60.3676766,3.69128171 60.185349,3.73506583 60.0785058,3.78371558 C59.9716626,3.83236533 59.8892087,3.90351453 59.8311418,3.9971653 C59.7730748,4.09081608 59.7440418,4.19480336 59.7440418,4.30913028 C59.7440418,4.48426939 59.8073338,4.63021646 59.9339198,4.74697586 C60.0605058,4.86373527 60.2457366,4.9221141 60.4896179,4.9221141 C60.7311764,4.9221141 60.946021,4.86677583 61.1341579,4.75609765 C61.3222949,4.64541946 61.4604922,4.49399938 61.548754,4.30183285 C61.6161116,4.15345111 61.64979,3.93453051 61.64979,3.64506448 L61.64979,3.40424941 Z M65.6563904,5.34901354 L65.6563904,4.86008597 C65.4217999,5.24441902 65.0768873,5.43658266 64.6216423,5.43658266 C64.3266621,5.43658266 64.0554935,5.35144687 63.8081282,5.18117273 C63.560763,5.0108986 63.3691449,4.7731265 63.2332682,4.4678493 C63.0973915,4.16257211 63.0294541,3.81169103 63.0294541,3.41519555 C63.0294541,3.02843002 63.0910042,2.67754894 63.2141062,2.36254179 C63.3372081,2.04753464 63.5218583,1.80611387 63.7680622,1.63827222 C64.0142661,1.47043058 64.2894994,1.38651101 64.5937703,1.38651101 C64.8167475,1.38651101 65.0153335,1.43576815 65.1895344,1.5342839 C65.3637353,1.63279965 65.5054165,1.76111144 65.6145824,1.91922314 L65.6145824,0 L66.2382185,0 L66.2382185,5.34901354 L65.6563904,5.34901354 Z M63.6739942,3.41519555 C63.6739942,3.91142302 63.7738679,4.28237182 63.9736182,4.52805307 C64.1733686,4.77373432 64.4091169,4.8965731 64.6808703,4.8965731 C64.9549464,4.8965731 65.1877914,4.77920734 65.3794124,4.54447228 C65.5710334,4.30973723 65.6668424,3.9515588 65.6668424,3.46992625 C65.6668424,2.93964394 65.5692914,2.55045176 65.3741864,2.30233802 C65.1790814,2.05422429 64.9386878,1.93016928 64.6529983,1.93016928 C64.3742769,1.93016928 64.1414319,2.04935938 63.9544562,2.28774317 C63.7674806,2.52612696 63.6739942,2.90194066 63.6739942,3.41519555 Z M67.2276746,0.755283631 L67.2276746,-4.16333634e-17 L67.8547947,-4.16333634e-17 L67.8547947,0.755283631 L67.2276746,0.755283631 Z M67.2276746,5.34901354 L67.2276746,1.47408013 L67.8547947,1.47408013 L67.8547947,5.34901354 L67.2276746,5.34901354 Z M68.8094108,5.34901354 L68.8094108,0 L69.4365309,0 L69.4365309,1.91922314 C69.7291883,1.56407995 70.0984887,1.38651101 70.544443,1.38651101 C70.818519,1.38651101 71.05659,1.4430655 71.2586631,1.55617618 C71.4607361,1.66928685 71.6053207,1.82557184 71.6924211,2.02503582 C71.7795215,2.22449981 71.8230711,2.51396149 71.8230711,2.89342956 L71.8230711,5.34901354 L71.195951,5.34901354 L71.195951,2.89342956 C71.195951,2.56504373 71.1280137,2.32605541 70.992137,2.17645742 C70.8562603,2.02685943 70.6640616,1.95206156 70.415535,1.95206156 C70.2297207,1.95206156 70.0549417,2.00253492 69.8911929,2.10348316 C69.7274441,2.20443139 69.6107312,2.34125677 69.5410509,2.51396339 C69.4713705,2.68667001 69.4365309,2.92505022 69.4365309,3.22911118 L69.4365309,5.34901354 L68.8094108,5.34901354 Z M74.7600834,6.83403981 L74.7600834,1.47408013 L75.3314595,1.47408013 L75.3314595,1.97760255 C75.4661749,1.78057105 75.618308,1.63279965 75.7878636,1.5342839 C75.9574191,1.43576815 76.1629731,1.38651101 76.4045316,1.38651101 C76.7204159,1.38651101 76.9991332,1.4716468 77.2406917,1.64192094 C77.4822503,1.81219507 77.6645778,2.05239962 77.7876798,2.36254179 C77.9107817,2.67268396 77.9723318,3.01261901 77.9723318,3.38235713 C77.9723318,3.77885261 77.9043945,4.13581482 77.7685178,4.45325445 C77.6326411,4.77069409 77.4352164,5.0139392 77.1762377,5.18299709 C76.9172591,5.35205498 76.6449291,5.43658266 76.3592396,5.43658266 C76.1501986,5.43658266 75.9626451,5.39036608 75.7965736,5.29793155 C75.630502,5.20549703 75.4940467,5.08873937 75.3872035,4.94765509 L75.3872035,6.83403981 L74.7600834,6.83403981 Z M75.3279755,3.43343911 C75.3279755,3.93209908 75.4243652,4.30061542 75.6171475,4.53899921 C75.8099299,4.777383 76.0433556,4.8965731 76.3174316,4.8965731 C76.596153,4.8965731 76.8348047,4.77312621 77.0333937,4.52622871 C77.2319827,4.27933122 77.3312757,3.89682828 77.3312757,3.37870842 C77.3312757,2.88491343 77.2343054,2.51518086 77.0403617,2.26949961 C76.846418,2.02381836 76.6147343,1.90097957 76.3453036,1.90097957 C76.0781956,1.90097957 75.8418666,2.03172382 75.6363095,2.29321624 C75.4307525,2.55470866 75.3279755,2.93477915 75.3279755,3.43343911 Z M78.7213919,5.34901354 L78.7213919,1.47408013 L79.2858,1.47408013 L79.2858,2.06152295 C79.429806,1.78665185 79.5627774,1.60543424 79.684718,1.51786469 C79.8066586,1.43029513 79.9407913,1.38651101 80.08712,1.38651101 C80.2984838,1.38651101 80.5133283,1.4570521 80.7316601,1.59813638 L80.5156521,2.20747148 C80.3623553,2.11260446 80.2090608,2.06517167 80.055764,2.06517167 C79.918726,2.06517167 79.7956259,2.10834767 79.68646,2.19470099 C79.5772941,2.2810543 79.4994855,2.40085251 79.453032,2.55409923 C79.3833516,2.78761688 79.348512,3.04302542 79.348512,3.320329 L79.348512,5.34901354 L78.7213919,5.34901354 Z M80.8710201,3.41154683 C80.8710201,2.69396299 81.0614769,2.16247241 81.4423962,1.81705917 C81.7606032,1.53002563 82.1484846,1.38651101 82.6060523,1.38651101 C83.1147189,1.38651101 83.5304721,1.56103938 83.8533245,1.91010136 C84.1761768,2.25916333 84.3376005,2.74139677 84.3376005,3.35681614 C84.3376005,3.8554761 84.2661792,4.24770885 84.1233345,4.53352614 C83.9804898,4.81934344 83.7726131,5.0413046 83.4996984,5.1994163 C83.2267837,5.35752799 82.9289046,5.43658266 82.6060523,5.43658266 C82.088095,5.43658266 81.6694385,5.2626624 81.3500702,4.91481667 C81.0307019,4.56697094 80.8710201,4.06588601 80.8710201,3.41154683 Z M81.5155602,3.41154683 C81.5155602,3.90777431 81.6189178,4.27933122 81.8256362,4.52622871 C82.0323546,4.77312621 82.2924907,4.8965731 82.6060523,4.8965731 C82.9172912,4.8965731 83.176266,4.7725181 83.3829844,4.52440436 C83.5897028,4.27629062 83.6930604,3.89804447 83.6930604,3.38965456 C83.6930604,2.91045449 83.5891221,2.54741116 83.3812424,2.30051367 C83.1733627,2.05361617 82.9149686,1.93016928 82.6060523,1.93016928 C82.2924907,1.93016928 82.0323546,2.05300806 81.8256362,2.29868931 C81.6189178,2.54437056 81.5155602,2.91531936 81.5155602,3.41154683 Z M84.9577526,5.6701003 L85.5674527,5.76496684 C85.5930021,5.96199834 85.6638427,6.10551296 85.7799767,6.195515 C85.9355961,6.31713938 86.148118,6.37795066 86.4175487,6.37795066 C86.7078836,6.37795066 86.9320187,6.31713938 87.0899608,6.195515 C87.247903,6.07389062 87.3547446,5.90361904 87.4104889,5.68469515 C87.4430064,5.55090833 87.4581035,5.26996023 87.4557809,4.84184241 C87.1817048,5.17995819 86.8402762,5.34901354 86.4314847,5.34901354 C85.9228181,5.34901354 85.52913,5.1568499 85.2504086,4.77251686 C84.9716872,4.38818381 84.8323286,3.92723432 84.8323286,3.38965456 C84.8323286,3.01991644 84.8962013,2.67876516 85.0239486,2.36619051 C85.1516959,2.05361585 85.3369267,1.81219507 85.5796467,1.64192094 C85.8223666,1.4716468 86.1074711,1.38651101 86.4349687,1.38651101 C86.8716323,1.38651101 87.2316421,1.5713773 87.5150089,1.94111542 L87.5150089,1.47408013 L88.0933529,1.47408013 L88.0933529,4.82359884 C88.0933529,5.42685577 88.0347062,5.85435906 87.9174109,6.10612153 C87.8001156,6.357884 87.6143042,6.55673688 87.3599709,6.70268613 C87.1056376,6.84863539 86.7926613,6.92160893 86.4210327,6.92160893 C85.9797238,6.92160893 85.623198,6.81762164 85.3514446,6.60964395 C85.0796912,6.40166626 84.9484619,6.08848817 84.9577526,5.6701003 Z M85.4768686,3.34222128 C85.4768686,3.8506112 85.5732584,4.22156 85.7660407,4.45507881 C85.958823,4.68859762 86.2003779,4.80535527 86.4907128,4.80535527 C86.7787249,4.80535527 87.0202798,4.68920573 87.2153848,4.45690316 C87.4104898,4.2246006 87.5080409,3.86034104 87.5080409,3.36411356 C87.5080409,2.88977848 87.4075865,2.53220816 87.2066748,2.29139188 C87.0057631,2.05057561 86.7636275,1.93016928 86.4802608,1.93016928 C86.2015393,1.93016928 85.9646297,2.04875127 85.7695247,2.28591881 C85.5744197,2.52308636 85.4768686,2.87518366 85.4768686,3.34222128 Z M89.034033,5.34901354 L89.034033,1.47408013 L89.5984411,1.47408013 L89.5984411,2.06152295 C89.7424472,1.78665185 89.8754185,1.60543424 89.9973591,1.51786469 C90.1192998,1.43029513 90.2534324,1.38651101 90.3997612,1.38651101 C90.6111249,1.38651101 90.8259695,1.4570521 91.0443013,1.59813638 L90.8282932,2.20747148 C90.6749965,2.11260446 90.521702,2.06517167 90.3684052,2.06517167 C90.2313672,2.06517167 90.108267,2.10834767 89.9991011,2.19470099 C89.8899353,2.2810543 89.8121267,2.40085251 89.7656731,2.55409923 C89.6959928,2.78761688 89.6611531,3.04302542 89.6611531,3.320329 L89.6611531,5.34901354 L89.034033,5.34901354 Z M93.8315016,4.87103211 C93.5992337,5.07779356 93.3756793,5.22374063 93.1608315,5.30887769 C92.9459837,5.39401476 92.7154613,5.43658266 92.4692574,5.43658266 C92.0627887,5.43658266 91.7503931,5.33259537 91.5320613,5.12461768 C91.3137295,4.91663999 91.2045653,4.6508947 91.2045653,4.32737385 C91.2045653,4.13763981 91.2457922,3.96432767 91.3282473,3.80743222 C91.4107024,3.65053676 91.5187053,3.52465742 91.6522593,3.4297904 C91.7858133,3.33492338 91.9362045,3.26316607 92.1034374,3.21451632 C92.2265393,3.1804615 92.4123508,3.14762341 92.6608774,3.11600107 C93.1672214,3.05275639 93.5400057,2.9773504 93.7792416,2.88978085 C93.7815642,2.79977881 93.7827256,2.7426162 93.7827256,2.71829133 C93.7827256,2.45071769 93.7234982,2.26220273 93.6050415,2.15274078 C93.4447767,2.00435904 93.2067057,1.93016928 92.8908215,1.93016928 C92.5958413,1.93016928 92.3780934,1.98429132 92.2375714,2.09253702 C92.0970493,2.20078271 91.993111,2.39233824 91.9257534,2.66720934 L91.3125693,2.57964023 C91.3683136,2.30476913 91.460058,2.08280796 91.5878053,1.91375007 C91.7155526,1.74469218 91.9002028,1.61455604 92.1417614,1.52333776 C92.38332,1.43211947 92.6631985,1.38651101 92.9814055,1.38651101 C93.2972898,1.38651101 93.5539419,1.42543023 93.7513696,1.50326984 C93.9487972,1.58110944 94.0939625,1.6790156 94.1868696,1.79699125 C94.2797768,1.9149669 94.3448108,2.06395453 94.3819736,2.24395861 C94.4028777,2.35585304 94.4133296,2.55774649 94.4133296,2.849645 L94.4133296,3.72533617 C94.4133296,4.33589056 94.4266848,4.72204218 94.4533956,4.88380261 C94.4801064,5.04556303 94.5329466,5.20063179 94.6119177,5.34901354 L93.9569256,5.34901354 C93.8918906,5.21279423 93.850083,5.05346868 93.8315016,4.87103211 Z M93.7792416,3.40424941 C93.5516191,3.50154891 93.2101904,3.58425225 92.7549455,3.65236191 C92.4971281,3.69128171 92.3148006,3.73506583 92.2079574,3.78371558 C92.1011142,3.83236533 92.0186603,3.90351453 91.9605934,3.9971653 C91.9025264,4.09081608 91.8734934,4.19480336 91.8734934,4.30913028 C91.8734934,4.48426939 91.9367854,4.63021646 92.0633714,4.74697586 C92.1899574,4.86373527 92.3751882,4.9221141 92.6190694,4.9221141 C92.860628,4.9221141 93.0754725,4.86677583 93.2636095,4.75609765 C93.4517465,4.64541946 93.5899438,4.49399938 93.6782056,4.30183285 C93.7455632,4.15345111 93.7792416,3.93453051 93.7792416,3.64506448 L93.7792416,3.40424941 Z M95.3853657,5.34901354 L95.3853657,1.47408013 L95.9462898,1.47408013 L95.9462898,2.0177384 C96.0624237,1.82800436 96.2168795,1.67536805 96.4096619,1.55982489 C96.6024442,1.44428173 96.821934,1.38651101 97.0681379,1.38651101 C97.342214,1.38651101 97.5669298,1.44610607 97.742292,1.56529796 C97.9176542,1.68448985 98.041335,1.85111276 98.1133381,2.06517167 C98.4059955,1.61272897 98.7869091,1.38651101 99.2560902,1.38651101 C99.6230734,1.38651101 99.9052746,1.49293075 100.102702,1.70577342 C100.30013,1.91861608 100.398842,2.24638888 100.398842,2.68910162 L100.398842,5.34901354 L99.7752062,5.34901354 L99.7752062,2.90802441 C99.7752062,2.64531575 99.7548831,2.45619267 99.7142362,2.34064951 C99.6735894,2.22510635 99.5998454,2.13206509 99.4930022,2.06152295 C99.386159,1.99098081 99.2607362,1.95571027 99.1167302,1.95571027 C98.8565902,1.95571027 98.6405843,2.04631908 98.4687061,2.2275394 C98.2968279,2.40875973 98.2108901,2.69882953 98.2108901,3.0977575 L98.2108901,5.34901354 L97.58377,5.34901354 L97.58377,2.83140144 C97.58377,2.53950292 97.5326718,2.32058159 97.430474,2.17463306 C97.3282761,2.02868381 97.1610458,1.95571027 96.9287779,1.95571027 C96.7522543,1.95571027 96.5890886,2.00435929 96.4392759,2.1016588 C96.2894631,2.1989583 96.1808795,2.3412567 96.1135218,2.52855824 C96.0461641,2.71585979 96.0124858,2.98586187 96.0124858,3.33857257 L96.0124858,5.34901354 L95.3853657,5.34901354 Z M103.861939,4.10115363 L104.509963,4.18507403 C104.407765,4.58156951 104.218469,4.88927458 103.942071,5.10819847 C103.665672,5.32712236 103.31263,5.43658266 102.882935,5.43658266 C102.34175,5.43658266 101.912642,5.26205429 101.595596,4.91299231 C101.278551,4.56393034 101.12003,4.07439955 101.12003,3.44438525 C101.12003,2.79247857 101.280293,2.28652873 101.600822,1.92652057 C101.921352,1.5665124 102.337105,1.38651101 102.848095,1.38651101 C103.342825,1.38651101 103.746965,1.56286372 104.060527,1.91557443 C104.374088,2.26828513 104.530867,2.76450516 104.530867,3.40424941 C104.530867,3.44316921 104.529705,3.50154804 104.527383,3.57938764 L101.768054,3.57938764 C101.791281,4.00507298 101.906252,4.33102143 102.11297,4.55724278 C102.319689,4.78346413 102.577502,4.8965731 102.886419,4.8965731 C103.116364,4.8965731 103.312627,4.83332937 103.475215,4.70684002 C103.637802,4.58035066 103.766709,4.37845722 103.861939,4.10115363 Z M101.802894,3.03937809 L103.868907,3.03937809 C103.841035,2.71342475 103.762065,2.46896341 103.631995,2.30598674 C103.432244,2.05300802 103.17327,1.92652057 102.855063,1.92652057 C102.56705,1.92652057 102.324915,2.02746729 102.128648,2.22936376 C101.932382,2.43126023 101.823799,2.70126231 101.802894,3.03937809 Z M105.290379,5.34901354 L105.290379,1.47408013 L105.854787,1.47408013 L105.854787,2.06152295 C105.998793,1.78665185 106.131764,1.60543424 106.253705,1.51786469 C106.375646,1.43029513 106.509778,1.38651101 106.656107,1.38651101 C106.867471,1.38651101 107.082315,1.4570521 107.300647,1.59813638 L107.084639,2.20747148 C106.931342,2.11260446 106.778048,2.06517167 106.624751,2.06517167 C106.487713,2.06517167 106.364613,2.10834767 106.255447,2.19470099 C106.146281,2.2810543 106.068473,2.40085251 106.022019,2.55409923 C105.952339,2.78761688 105.917499,3.04302542 105.917499,3.320329 L105.917499,5.34901354 L105.290379,5.34901354 Z M110.087847,4.87103211 C109.85558,5.07779356 109.632025,5.22374063 109.417177,5.30887769 C109.20233,5.39401476 108.971807,5.43658266 108.725603,5.43658266 C108.319134,5.43658266 108.006739,5.33259537 107.788407,5.12461768 C107.570075,4.91663999 107.460911,4.6508947 107.460911,4.32737385 C107.460911,4.13763981 107.502138,3.96432767 107.584593,3.80743222 C107.667048,3.65053676 107.775051,3.52465742 107.908605,3.4297904 C108.042159,3.33492338 108.19255,3.26316607 108.359783,3.21451632 C108.482885,3.1804615 108.668697,3.14762341 108.917223,3.11600107 C109.423567,3.05275639 109.796351,2.9773504 110.035587,2.88978085 C110.03791,2.79977881 110.039071,2.7426162 110.039071,2.71829133 C110.039071,2.45071769 109.979844,2.26220273 109.861387,2.15274078 C109.701123,2.00435904 109.463052,1.93016928 109.147167,1.93016928 C108.852187,1.93016928 108.634439,1.98429132 108.493917,2.09253702 C108.353395,2.20078271 108.249457,2.39233824 108.182099,2.66720934 L107.568915,2.57964023 C107.624659,2.30476913 107.716404,2.08280796 107.844151,1.91375007 C107.971898,1.74469218 108.156549,1.61455604 108.398107,1.52333776 C108.639666,1.43211947 108.919544,1.38651101 109.237751,1.38651101 C109.553636,1.38651101 109.810288,1.42543023 110.007715,1.50326984 C110.205143,1.58110944 110.350308,1.6790156 110.443215,1.79699125 C110.536123,1.9149669 110.601157,2.06395453 110.638319,2.24395861 C110.659224,2.35585304 110.669675,2.55774649 110.669675,2.849645 L110.669675,3.72533617 C110.669675,4.33589056 110.683031,4.72204218 110.709741,4.88380261 C110.736452,5.04556303 110.789292,5.20063179 110.868263,5.34901354 L110.213271,5.34901354 C110.148236,5.21279423 110.106429,5.05346868 110.087847,4.87103211 Z M110.035587,3.40424941 C109.807965,3.50154891 109.466536,3.58425225 109.011291,3.65236191 C108.753474,3.69128171 108.571146,3.73506583 108.464303,3.78371558 C108.35746,3.83236533 108.275006,3.90351453 108.216939,3.9971653 C108.158872,4.09081608 108.129839,4.19480336 108.129839,4.30913028 C108.129839,4.48426939 108.193131,4.63021646 108.319717,4.74697586 C108.446303,4.86373527 108.631534,4.9221141 108.875415,4.9221141 C109.116974,4.9221141 109.331818,4.86677583 109.519955,4.75609765 C109.708092,4.64541946 109.84629,4.49399938 109.934551,4.30183285 C110.001909,4.15345111 110.035587,3.93453051 110.035587,3.64506448 L110.035587,3.40424941 Z" id="udrugamladihprogramera"></path>
                </g>
            </g>
        </g>
    </g>
</svg>