<?xml version="1.0" encoding="UTF-8"?>
<svg width="16px" height="31px" viewBox="0 0 16 31" version="1.1" xmlns="http://www.w3.org/2000/svg" xmlns:xlink="http://www.w3.org/1999/xlink">
    <!-- Generator: sketchtool 63.1 (101010) - https://sketch.com -->
    <title>650479A0-4C25-4764-AFAB-51A55C7C4B31</title>
    <desc>Created with sketchtool.</desc>
    <g id="Desktop" stroke="none" stroke-width="1" fill="none" fill-rule="evenodd">
        <g id="Web_desktop" transform="translate(-1311.000000, -15534.000000)" fill="#7A8E94" fill-rule="nonzero">
            <g id="Footer" transform="translate(220.000000, 15531.000000)">
                <g id="Facebook-logo" transform="translate(1091.000000, 3.000000)">
                    <path d="M15.397487,0.00645006918 L11.5598145,0 C7.24832111,0 4.46204468,2.99444462 4.46204468,7.62914183 L4.46204468,11.1466871 L0.603436664,11.1466871 C0.27000712,11.1466871 0,11.4298451 0,11.7791163 L0,16.8756385 C0,17.2249098 0.270314995,17.5077453 0.603436664,17.5077453 L4.46204468,17.5077453 L4.46204468,30.3678932 C4.46204468,30.7171645 4.7320518,31 5.06548134,31 L10.0998672,31 C10.4332968,31 10.7033039,30.716842 10.7033039,30.3678932 L10.7033039,17.5077453 L15.2149166,17.5077453 C15.5483461,17.5077453 15.8183532,17.2249098 15.8183532,16.8756385 L15.8202005,11.7791163 C15.8202005,11.6114145 15.7564702,11.4508078 15.6434798,11.3321265 C15.5304893,11.2134453 15.3765514,11.1466871 15.216456,11.1466871 L10.7033039,11.1466871 L10.7033039,8.16482007 C10.7033039,6.7316147 11.0293444,6.0040469 12.8116377,6.0040469 L15.3968712,6.00307939 C15.7299929,6.00307939 16,5.71992135 16,5.37097261 L16,0.638556849 C16,0.28993061 15.7303008,0.0070950761 15.397487,0.00645006918 Z" id="Path"></path>
                </g>
            </g>
        </g>
    </g>
</svg>