<?xml version="1.0" encoding="UTF-8"?>
<svg width="29px" height="30px" viewBox="0 0 29 30" version="1.1" xmlns="http://www.w3.org/2000/svg" xmlns:xlink="http://www.w3.org/1999/xlink">
    <!-- Generator: sketchtool 63.1 (101010) - https://sketch.com -->
    <title>9F4F699F-DB26-4AE4-8597-160372C6AAD7</title>
    <desc>Created with sketchtool.</desc>
    <g id="Desktop" stroke="none" stroke-width="1" fill="none" fill-rule="evenodd">
        <g id="Web_desktop" transform="translate(-1362.000000, -15535.000000)" fill="#7A8E94" fill-rule="nonzero">
            <g id="Footer" transform="translate(220.000000, 15531.000000)">
                <g id="Instagram-logo" transform="translate(1142.000000, 4.000000)">
                    <path d="M20.9968769,0 L8.00278005,0 C3.5900498,0 0,3.71402207 0,8.27891543 L0,21.7210846 C0,26.2861554 3.5900498,30 8.00278005,30 L20.9968769,30 C25.4099502,30 29,26.2859779 29,21.7210846 L29,8.27891543 C29,3.71402207 25.4099502,0 20.9968769,0 Z M26.427151,21.7210846 C26.427151,24.818469 23.9911867,27.3382546 20.9970484,27.3382546 L8.00278005,27.3382546 C5.00881333,27.3382546 2.57302055,24.818469 2.57302055,21.7210846 L2.57302055,8.27891543 C2.57302055,5.18170849 5.00881333,2.6617454 8.00278005,2.6617454 L20.9968769,2.6617454 C23.9910151,2.6617454 26.427151,5.18170849 26.427151,8.27891543 L26.427151,21.7210846 L26.427151,21.7210846 Z" id="Shape"></path>
                    <path d="M14.5,8 C10.3644377,8 7,11.3645149 7,15.5001722 C7,19.6356572 10.3644377,23 14.5,23 C18.6355623,23 22,19.6356572 22,15.5001722 C22,11.3645149 18.6355623,8 14.5,8 Z M14.5,20.4173018 C11.7885821,20.4173018 9.58246677,18.2114802 9.58246677,15.5 C9.58246677,12.7883476 11.7884099,10.5823539 14.5,10.5823539 C17.2115901,10.5823539 19.4175332,12.7883476 19.4175332,15.5 C19.4175332,18.2114802 17.2114179,20.4173018 14.5,20.4173018 Z" id="Shape"></path>
                    <path d="M22,5 C21.4745455,5 20.9583636,5.21272727 20.5872727,5.58545455 C20.2143636,5.95636364 20,6.47272727 20,7 C20,7.52563636 20.2145455,8.04181818 20.5872727,8.41454545 C20.9581818,8.78545455 21.4745455,9 22,9 C22.5272727,9 23.0418182,8.78545455 23.4145455,8.41454545 C23.7872727,8.04181818 24,7.52545455 24,7 C24,6.47272727 23.7872727,5.95636364 23.4145455,5.58545455 C23.0436364,5.21272727 22.5272727,5 22,5 Z" id="Path"></path>
                </g>
            </g>
        </g>
    </g>
</svg>