<?xml version="1.0" encoding="UTF-8"?>
<svg width="115px" height="135px" viewBox="0 0 115 135" version="1.1" xmlns="http://www.w3.org/2000/svg" xmlns:xlink="http://www.w3.org/1999/xlink">
    <!-- Generator: sketchtool 57.1 (101010) - https://sketch.com -->
    <title>69E219F8-B0D4-46F6-8ABA-9086427C45A4</title>
    <desc>Created with sketchtool.</desc>
    <g id="Asset-Artboard-Page" stroke="none" stroke-width="1" fill="none" fill-rule="evenodd">
        <g id="Logo">
            <path d="M113.663493,62.8766276 C112.491732,54.9950457 107.665314,49.5122062 104.137818,46.0728689 C98.2481216,40.3304041 92.3627359,34.5851476 86.4773502,28.8419848 C79.5811323,22.1091751 72.6856327,15.3763653 65.7822305,8.65053478 C57.2135055,0.300650299 46.6655034,-2.06249822 35.2769372,1.81373535 C23.674997,5.76185442 16.3369441,15.0657921 16.130036,26.0900962 L16.130036,26.0914921 C16.0617851,29.660642 16,34.1238241 16,38.7831211 C16,40.7037899 16.9763476,41.6634264 16.9763476,41.6634264 L24.101745,48.5853718 C24.927222,49.2965497 26.6809118,49.0117993 26.6672616,48.0486733 C26.6758828,40.4525396 26.7132412,32.0621759 26.8224427,26.2806277 C26.9474496,19.6120264 31.4290214,14.1305827 38.8130539,11.6159861 C46.3529859,9.04974357 52.515686,10.4399951 58.2085322,15.9856473 C65.1083423,22.7114778 72.0038418,29.4401 78.8979045,36.1694202 C84.7854455,41.9167705 90.6708312,47.662027 96.5619644,53.4058877 C100.514771,57.2597879 102.524222,60.6377084 103.078851,64.3617959 C103.943123,70.1747505 102.394186,74.94711 98.3465467,78.9461771 C92.4302684,84.7905379 86.3415668,90.6802633 80.4518705,96.3766656 C73.0146741,103.572893 65.3231531,111.011995 57.8708697,118.466451 C53.3447552,122.995935 46.4672165,124.697458 39.9223112,122.913581 C34.2229991,121.360715 29.9052295,117.501929 27.9956403,112.410621 C27.3706054,110.746088 25.4703558,111.274412 25.0040941,111.733641 L19.8651581,116.723751 C19.8651581,116.723751 19.4132651,117.218575 19.3292087,117.867638 C19.2394048,118.562066 19.3328008,119.098066 19.6740555,119.708744 C23.2446569,126.082126 29.3678433,130.825871 37.0320638,132.915436 C39.7046267,133.644062 42.4159848,134 45.0957319,134 C52.7656999,133.997906 60.1619458,131.088288 65.5437114,125.703855 C72.9320545,118.312211 80.5898092,110.903818 87.9968315,103.739695 C93.9059254,98.0230529 100.016898,92.1137858 105.971972,86.2296437 C112.340143,79.9386157 114.999774,71.8630128 113.663493,62.8766276" id="Fill-1" fill="#1A3C44"></path>
            <path d="M37.9516081,87.5640808 C40.4250401,85.2049175 41.3768104,82.2731086 40.8669073,78.9709659 C40.4762499,76.4266357 38.9831192,74.4535797 37.1022574,72.6842073 C31.0982772,67.0366174 25.104539,61.3807979 19.0983641,55.7352654 C15.7646078,52.5997729 11.8741282,51.7212589 7.38668886,53.1964217 C3.02361614,54.6304364 0.158795088,57.8873161 0.0783225868,62.0151659 C-0.0394598927,68.129102 0.0219918358,80.3604033 0.00955517643,80.3604033 C0.00955517643,85.4956981 -0.0197075514,90.6303072 0.0241865403,95.7662878 C0.0388179043,97.4081008 0.0219918358,99.0972343 0.407528275,100.683497 C2.31033715,108.533887 13.1090153,111.107021 18.9637556,105.454631 C25.2135426,99.4195618 31.6615847,93.5628019 37.9516081,87.5640808" id="Fill-3" fill="#5EC4BC"></path>
        </g>
    </g>
</svg>