<?xml version="1.0" encoding="UTF-8"?>
<svg width="24px" height="24px" viewBox="0 0 24 24" version="1.1" xmlns="http://www.w3.org/2000/svg" xmlns:xlink="http://www.w3.org/1999/xlink">
    <!-- Generator: sketchtool 63.1 (101010) - https://sketch.com -->
    <title>29B6FBCA-B2B9-4833-937E-4C38A2E40DB2</title>
    <desc>Created with sketchtool.</desc>
    <g id="Desktop" stroke="none" stroke-width="1" fill="none" fill-rule="evenodd">
        <g id="Web_desktop" transform="translate(-1176.000000, -15223.000000)" fill="#F1F3F6" fill-rule="nonzero">
            <g id="Imaš-pitanje-sekcija" transform="translate(220.000000, 15167.000000)">
                <g id="Pošalji-mail-botun" transform="translate(937.000000, 45.000000)">
                    <g id="Messenger" transform="translate(19.000000, 11.000000)">
                        <path d="M12,0 C18.627,0 24,4.974 24,11.112 C24,17.2485 18.627,22.2225 12,22.2225 C10.803,22.2225 9.648,22.059 8.5575,21.7575 L8.5575,21.7575 L4.4715,24 L4.4715,19.7625 C1.7445,17.7255 0,14.607 0,11.1105 C0,4.974 5.373,0 12,0 Z M19.752,7.9995 L13.863,11.259 L10.7325,7.9995 L4.1745,14.9625 L10.137,11.703 L13.1925,14.9625 L19.752,7.9995 Z" id="Combined-Shape"></path>
                    </g>
                </g>
            </g>
        </g>
    </g>
</svg>