<?xml version="1.0" encoding="UTF-8"?>
<svg width="30px" height="21px" viewBox="0 0 30 21" version="1.1" xmlns="http://www.w3.org/2000/svg" xmlns:xlink="http://www.w3.org/1999/xlink">
    <!-- Generator: sketchtool 63.1 (101010) - https://sketch.com -->
    <title>57B3B589-5367-4649-8424-2268DDC5847C</title>
    <desc>Created with sketchtool.</desc>
    <g id="Desktop" stroke="none" stroke-width="1" fill="none" fill-rule="evenodd">
        <g id="Web_desktop" transform="translate(-825.000000, -894.000000)" stroke="#7A8E94" stroke-width="2.5">
            <g id="Header-sekcija" transform="translate(-42.000000, 30.000000)">
                <g id="Saznja-više" transform="translate(837.500000, 829.000000)">
                    <path d="M40.5585288,32.0057972 C41.8069701,32.0655763 42.8490453,32.6125544 43.7213443,33.5047564 C46.502163,36.3382825 49.2902997,39.1673251 52.055019,42.0187848 C53.9972014,44.0243713 53.9737839,47.0103338 52.0316016,49.0009756 C49.2581008,51.841974 46.4611825,54.6620497 43.7023176,57.5179929 C41.1542095,60.1527537 37.1073864,59.0274134 35.9204159,56.0818017 C35.6701422,55.4600998 35.5384192,54.7472348 35.5281741,54.0747208 C35.48573,51.2187776 35.5003659,39.7695988 35.5135382,36.8987109 C35.5252469,34.0442622 37.767465,31.8727889 40.5585288,32.0057972 Z" id="Oblik-1" transform="translate(44.500000, 45.500000) rotate(-270.000000) translate(-44.500000, -45.500000) "></path>
                </g>
            </g>
        </g>
    </g>
</svg>