<?xml version="1.0" encoding="UTF-8"?>
<svg width="35px" height="35px" viewBox="0 0 35 35" version="1.1" xmlns="http://www.w3.org/2000/svg" xmlns:xlink="http://www.w3.org/1999/xlink">
    <!-- Generator: sketchtool 63.1 (101010) - https://sketch.com -->
    <title>D03248E9-861D-4790-BF1F-3EF3D85DCDD3</title>
    <desc>Created with sketchtool.</desc>
    <g id="Desktop" stroke="none" stroke-width="1" fill="none" fill-rule="evenodd">
        <g id="Web_desktop" transform="translate(-1374.000000, -3319.000000)" fill-rule="nonzero">
            <g id="Raspored-sekcija" transform="translate(220.000000, 2868.000000)">
                <g id="Group-40" transform="translate(0.000000, 404.000000)">
                    <g id="Strelica" transform="translate(1154.000000, 47.000000)">
                        <path d="M17.5,0 C7.83501688,0 0,7.83501688 0,17.5 C0,27.1649831 7.83501688,35 17.5,35 C27.1649831,35 35,27.1649831 35,17.5 C35,12.8587114 33.1562553,8.40751795 29.8743687,5.12563133 C26.592482,1.84374471 22.1412886,0 17.5,0 Z" id="Shape" fill="#7A8E94"></path>
                        <path d="M25.8956994,14.2194936 C25.8956994,14.3368065 25.849196,14.4493332 25.7661204,14.5321631 L17.8056516,22.4926319 C17.6329538,22.6652776 17.3530105,22.6652776 17.1803126,22.4926319 L9.21984383,14.5321631 C9.05224403,14.3586342 9.05464094,14.0828014 9.22523104,13.9122113 C9.39582115,13.7416212 9.67165399,13.7392242 9.84518288,13.906824 L17.4929821,21.5546233 L25.1407814,13.906824 C25.2672618,13.7803818 25.4574473,13.7425633 25.6226792,13.8109986 C25.7879111,13.8794338 25.8956994,14.0406502 25.8956994,14.2194936 Z" id="Shape" stroke="#F1F3F6" fill="#F1F3F6"></path>
                    </g>
                </g>
            </g>
        </g>
    </g>
</svg>