<?xml version="1.0" encoding="UTF-8"?>
<svg width="35px" height="24px" viewBox="0 0 35 24" version="1.1" xmlns="http://www.w3.org/2000/svg" xmlns:xlink="http://www.w3.org/1999/xlink">
    <!-- Generator: sketchtool 63.1 (101010) - https://sketch.com -->
    <title>0A74963D-1714-444B-B5E9-FFB1DF0DB869</title>
    <desc>Created with sketchtool.</desc>
    <g id="Desktop" stroke="none" stroke-width="1" fill="none" fill-rule="evenodd">
        <g id="Web_desktop" transform="translate(-1426.000000, -15538.000000)" fill="#7A8E94" fill-rule="nonzero">
            <g id="Footer" transform="translate(220.000000, 15531.000000)">
                <g id="Youtube-logo" transform="translate(1206.000000, 6.000000)">
                    <path d="M17.929884,1.00049274 C19.9832763,1.00960026 28.7800615,1.08636368 31.194063,1.73336963 C32.6931894,2.12879663 33.875347,3.28630974 34.2788347,4.75477706 C35.028665,7.43698555 34.9999725,13.0278838 34.9999725,13.0278838 C34.9999725,13.0278838 34.9999725,18.5902759 34.2791017,21.2727459 C33.875347,22.7409517 32.6934565,23.8987263 31.194063,24.2938918 C28.4550997,25.0000115 17.4995137,25.0000115 17.4995137,25.0000115 C17.1314505,24.9998006 6.52559293,24.987569 3.80496446,24.2659086 C2.30557099,23.8704816 1.12368047,22.7127069 0.719925723,21.2445011 C0.0811025279,18.8918924 0.00850898301,14.2323199 0.000259716542,13.2037059 L0.000259716542,12.7965333 C0.00850898301,11.7725955 0.0811025279,7.13218913 0.719925723,4.75477706 C1.12341339,3.28657124 2.33441061,2.10055184 3.80469745,1.70538636 C6.21869895,1.08304363 15.0152767,1.00920636 17.0686198,1.000446 Z M13.9995103,7.85662236 L13.9995103,18.1426558 L23.0585332,12.9996391 L13.9995103,7.85662236 Z" id="Combined-Shape"></path>
                </g>
            </g>
        </g>
    </g>
</svg>